<svg width="16" height="16" viewBox="0 0 16 16" fill="none" xmlns="http://www.w3.org/2000/svg"><path d="M4.646 11.295l2.937-2.938 2.938 2.938.774-.774-2.938-2.938 2.938-2.937-.774-.774-2.938 2.937-2.937-2.937-.774.774 2.937 2.937-2.937 2.938.774.774zm2.939 3.872c-1.04 0-2.02-.198-2.942-.592a7.644 7.644 0 01-2.42-1.63 7.643 7.643 0 01-1.63-2.42A7.387 7.387 0 010 7.586C0 6.53.197 5.547.592 4.633A7.643 7.643 0 014.641.593 7.387 7.387 0 017.58 0c1.054 0 2.038.197 2.953.592a7.678 7.678 0 014.04 4.038c.395.915.593 1.899.593 2.952 0 1.04-.198 2.02-.592 2.942a7.644 7.644 0 01-4.039 4.05 7.366 7.366 0 01-2.951.593z" fill="gray"/></svg>