<svg width="92" height="24" viewBox="0 0 92 24" fill="none" xmlns="http://www.w3.org/2000/svg"><rect x=".5" y=".5" width="91" height="23" rx="1.5" fill="#fff"/><rect x=".5" y=".5" width="91" height="23" rx="1.5" stroke="#B2B2B2"/><mask id="mask0_126_35211" style="mask-type:alpha" maskUnits="userSpaceOnUse" x="6" y="4" width="16" height="16"><path fill="#D9D9D9" d="M6 4h16v16H6z"/></mask><g mask="url(#mask0_126_35211)"><path d="M11.251 8.495l1.803-2.366a1.1 1.1 0 01.426-.352 1.24 1.24 0 01.52-.113c.183 0 .357.038.521.113a1.1 1.1 0 01.427.352l1.802 2.366 2.756.93c.264.085.47.235.616.448.148.214.222.45.222.71 0 .119-.018.238-.053.357a1.1 1.1 0 01-.172.34l-1.795 2.492.067 2.643a1.15 1.15 0 01-.347.888 1.17 1.17 0 01-.848.361c-.01 0-.12-.015-.334-.044L14 16.8l-2.861.82a.545.545 0 01-.172.039 2.86 2.86 0 01-.163.005c-.326 0-.61-.12-.85-.361a1.15 1.15 0 01-.345-.888l.067-2.66-1.785-2.474a1.107 1.107 0 01-.172-.343A1.227 1.227 0 018.5 9.419l2.75-.924z" fill="#CCC"/></g><path d="M29.064 7.34a1.952 1.952 0 00-.036.276c-.008.104-.02.216-.036.336a26.56 26.56 0 01-.024.312c-.008.208-.02.456-.036.744-.008.28-.02.588-.036.924l-.024.996v.948c0 .312.004.66.012 1.044a2573.764 2573.764 0 00.06 2.916c0 .424-.052.756-.156.996-.096.24-.232.408-.408.504a1.215 1.215 0 01-.612.144c-.256 0-.536-.056-.84-.168a3.729 3.729 0 01-.864-.456 2.681 2.681 0 01-.672-.672 1.416 1.416 0 01-.264-.816c0-.368.14-.732.42-1.092a4.645 4.645 0 011.128-1.008 7.296 7.296 0 011.476-.744c.544-.2 1.1-.352 1.668-.456a8.663 8.663 0 011.548-.156c.6 0 1.136.1 1.608.3.472.2.844.488 1.116.864.272.376.408.82.408 1.332 0 .472-.096.896-.288 1.272a2.492 2.492 0 01-.852.96c-.384.264-.868.468-1.452.612-.272.056-.54.096-.804.12-.256.024-.496.044-.72.06l-.432-1.224c.24.008.484.008.732 0s.484-.036.708-.084c.336-.064.648-.164.936-.3.288-.144.516-.332.684-.564a1.42 1.42 0 00.264-.864c0-.312-.084-.572-.252-.78a1.56 1.56 0 00-.684-.492 2.7 2.7 0 00-.984-.168c-.52 0-1.036.056-1.548.168a9.323 9.323 0 00-1.512.444 5.422 5.422 0 00-1.008.516c-.304.2-.544.408-.72.624-.176.208-.264.408-.264.6 0 .12.04.236.12.348.08.104.176.196.288.276.12.08.244.144.372.192.128.048.244.072.348.072.12 0 .216-.04.288-.12.08-.088.12-.232.12-.432 0-.224-.008-.54-.024-.948a420.84 420.84 0 01-.024-1.344 88.664 88.664 0 01-.012-1.428v-1.068c.008-.376.012-.736.012-1.08.008-.344.012-.648.012-.912.008-.264.012-.456.012-.576 0-.088-.004-.192-.012-.312l-.024-.348a1.995 1.995 0 00-.036-.288h1.32zm3.588 1.32c.296.144.624.324.984.54.368.208.716.42 1.044.636.336.208.604.392.804.552l-.588.96a4.42 4.42 0 00-.576-.444 17.93 17.93 0 00-.756-.492 16.751 16.751 0 00-.78-.468 8.94 8.94 0 00-.66-.372l.528-.912zm-7.272.756c.344.04.64.068.888.084.248.008.484.012.708.012.296 0 .632-.016 1.008-.048s.756-.072 1.14-.12c.392-.048.772-.108 1.14-.18.376-.08.716-.164 1.02-.252l.024 1.176c-.32.072-.676.14-1.068.204-.384.064-.776.124-1.176.18-.392.048-.768.088-1.128.12-.352.024-.664.036-.936.036-.36 0-.664-.004-.912-.012a44.115 44.115 0 01-.672-.048l-.036-1.152zm13.548-1.32h8.208v.948h-8.208v-.948zm.132 1.74h6.96v.924h-6.96v-.924zm-1.392 1.728h7.092v.972h-7.092v-.972zm1.284-4.728l1.2.252c-.296.944-.684 1.82-1.164 2.628-.472.808-.996 1.48-1.572 2.016a2.168 2.168 0 00-.3-.24 6.975 6.975 0 00-.396-.276 3.833 3.833 0 00-.348-.216c.592-.472 1.108-1.072 1.548-1.8a9.593 9.593 0 001.032-2.364zm3.12 5.844l1.092.36a10.956 10.956 0 01-1.5 2.088 12.59 12.59 0 01-1.92 1.716c-.696.504-1.416.94-2.16 1.308-.064-.08-.144-.176-.24-.288a5.977 5.977 0 00-.312-.336 6.484 6.484 0 00-.3-.264c.76-.312 1.476-.696 2.148-1.152.672-.456 1.28-.972 1.824-1.548a8.764 8.764 0 001.368-1.884zm2.292-1.116h1.164c0 .76.012 1.464.036 2.112.024.64.072 1.204.144 1.692.072.48.172.856.3 1.128.128.272.296.408.504.408.104-.008.172-.164.204-.468.04-.304.064-.708.072-1.212.112.128.24.256.384.384.144.128.272.232.384.312a6.24 6.24 0 01-.156 1.212c-.072.312-.184.536-.336.672-.152.144-.364.216-.636.216-.456 0-.82-.164-1.092-.492-.272-.32-.476-.768-.612-1.344a12.513 12.513 0 01-.276-2.052 49.168 49.168 0 01-.084-2.568zm-6.528 2.304l.816-.744c.448.24.916.508 1.404.804.488.296.964.608 1.428.936.464.328.896.652 1.296.972.408.32.744.624 1.008.912l-.9.852c-.256-.28-.576-.584-.96-.912-.384-.328-.804-.66-1.26-.996-.456-.336-.928-.66-1.416-.972-.488-.32-.96-.604-1.416-.852zm15.588-5.1c.352.056.748.096 1.188.12.448.024.908.032 1.38.024.472-.008.924-.024 1.356-.048.432-.024.804-.056 1.116-.096v1.224c-.344.032-.732.06-1.164.084a36.343 36.343 0 01-2.688 0c-.44-.024-.832-.052-1.176-.084l-.012-1.224zm.684 4.992c-.048.208-.088.396-.12.564a3.56 3.56 0 00-.036.504c0 .136.028.264.084.384.064.12.164.224.3.312.144.088.336.16.576.216.248.048.552.072.912.072.544 0 1.052-.024 1.524-.072.48-.056.968-.14 1.464-.252l.024 1.284c-.376.072-.816.132-1.32.18-.496.04-1.068.06-1.716.06-1.016 0-1.768-.164-2.256-.492-.48-.336-.72-.796-.72-1.38 0-.216.016-.44.048-.672.032-.24.084-.508.156-.804l1.08.096zm-2.772-5.856l-.096.288c-.032.112-.064.228-.096.348a38.66 38.66 0 01-.06.276l-.144.732-.156.924c-.048.328-.096.664-.144 1.008-.04.336-.076.664-.108.984-.024.32-.036.612-.036.876 0 .208.004.42.012.636.016.208.036.424.06.648.072-.16.144-.328.216-.504.072-.184.144-.364.216-.54.072-.176.14-.336.204-.48l.6.48a64.91 64.91 0 00-.336.984c-.12.36-.228.704-.324 1.032-.088.32-.152.58-.192.78-.016.08-.032.176-.048.288-.016.104-.02.192-.012.264v.204l.024.24-1.092.072c-.12-.416-.224-.964-.312-1.644a17.456 17.456 0 01-.072-3.588c.04-.464.088-.912.144-1.344.056-.432.112-.828.168-1.188a21.685 21.685 0 00.204-1.392c.024-.176.04-.344.048-.504l1.332.12zm11.4-.336h3.408V8.72h-3.408V7.568zm2.844 0h1.164c0 .368.012.796.036 1.284.032.48.1.996.204 1.548.104.544.264 1.108.48 1.692.216.584.5 1.164.852 1.74.36.576.812 1.136 1.356 1.68.544.536 1.2 1.032 1.968 1.488-.08.064-.18.152-.3.264-.12.12-.236.244-.348.372-.112.128-.2.24-.264.336a10.273 10.273 0 01-2.016-1.584c-.56-.584-1.032-1.2-1.416-1.848-.376-.648-.68-1.3-.912-1.956a13.44 13.44 0 01-.528-1.908 16.69 16.69 0 01-.228-1.716c-.032-.536-.048-1-.048-1.392zm-.42 2.484l1.284.228c-.28 1.208-.648 2.3-1.104 3.276a10.81 10.81 0 01-1.656 2.556 9.275 9.275 0 01-2.268 1.884 1.933 1.933 0 00-.288-.3l-.396-.348a2.257 2.257 0 00-.348-.276c1.304-.672 2.336-1.596 3.096-2.772.768-1.184 1.328-2.6 1.68-4.248zM76.176 7.46c-.048.184-.1.408-.156.672a17.99 17.99 0 00-.156.804c-.048.28-.092.552-.132.816-.032.256-.056.48-.072.672.136-.272.304-.548.504-.828a4.66 4.66 0 01.72-.768c.272-.232.568-.42.888-.564.32-.144.66-.216 1.02-.216a2.24 2.24 0 011.452.516c.432.336.772.816 1.02 1.44s.372 1.368.372 2.232c0 .832-.124 1.56-.372 2.184a4.372 4.372 0 01-1.056 1.584c-.456.432-1 .784-1.632 1.056a9.091 9.091 0 01-2.088.624l-.72-1.092a11.724 11.724 0 001.824-.432 4.917 4.917 0 001.464-.78c.416-.328.736-.748.96-1.26.232-.512.348-1.14.348-1.884 0-.624-.068-1.168-.204-1.632-.136-.464-.336-.824-.6-1.08a1.343 1.343 0 00-.972-.384c-.368 0-.72.12-1.056.36-.336.24-.64.548-.912.924a5.69 5.69 0 00-.648 1.212 4.67 4.67 0 00-.288 1.248 7.83 7.83 0 00-.024.624c.008.216.032.468.072.756l-1.176.084a73.864 73.864 0 01-.084-.84 11.947 11.947 0 01-.012-2.028 47.721 47.721 0 01.192-2.04c.048-.328.088-.628.12-.9a5.44 5.44 0 00.06-.6c.016-.192.028-.372.036-.54l1.308.06z" fill="#B2B2B2"/></svg>