<svg width="24" height="24" viewBox="0 0 24 24" fill="none" xmlns="http://www.w3.org/2000/svg"><mask id="mask0_172_40965" style="mask-type:alpha" maskUnits="userSpaceOnUse" x="0" y="0" width="24" height="24"><path fill="#D9D9D9" d="M0 0h24v24H0z"/></mask><g mask="url(#mask0_172_40965)"><path d="M6.696 22.5v-7.59L3.359 9.5l4.318-7h8.654l4.317 7-3.337 5.41v7.59l-5.307-1.798L6.696 22.5zm1.5-2.121l3.808-1.268 3.807 1.268V16.5H8.196v3.879zM8.513 4l-3.4 5.5 3.4 5.5h6.981l3.4-5.5-3.4-5.5h-6.98zm2.44 9.22L7.76 10.05l1.07-1.07 2.125 2.126 4.225-4.25L16.248 7.9l-5.294 5.32z" fill="#333"/></g></svg>