<svg width="24" height="24" viewBox="0 0 24 24" fill="none" xmlns="http://www.w3.org/2000/svg"><mask id="mask0_18_1690" style="mask-type:alpha" maskUnits="userSpaceOnUse" x="0" y="0" width="24" height="24"><path fill="#D9D9D9" d="M0 0h24v24H0z"/></mask><g mask="url(#mask0_18_1690)"><path d="M7.154 21.558c-.486 0-.9-.17-1.24-.511-.34-.34-.51-.753-.51-1.24 0-.485.17-.898.51-1.239.34-.34.754-.51 1.24-.51s.899.17 1.24.51c.34.34.51.754.51 1.24s-.17.899-.51 1.239a1.69 1.69 0 01-1.24.51zm9.692 0c-.486 0-.899-.17-1.24-.511-.34-.34-.51-.753-.51-1.24 0-.485.17-.898.51-1.239.341-.34.754-.51 1.24-.51s.9.17 1.24.51c.34.34.51.754.51 1.24s-.17.899-.51 1.239c-.34.34-.754.51-1.24.51zM6.016 5.75l2.534 5.308h6.817a.28.28 0 00.154-.043.377.377 0 00.115-.12l2.683-4.876c.039-.07.042-.133.01-.187-.032-.055-.087-.082-.164-.082H6.015zm-.72-1.5h13.885c.409 0 .718.174.927.522.21.348.22.704.03 1.066l-3.204 5.804a1.8 1.8 0 01-.65.674 1.7 1.7 0 01-.888.242H8.1l-1.158 2.115c-.051.077-.053.16-.005.25s.12.135.217.135h11.442v1.5H7.154c-.667 0-1.168-.288-1.503-.863-.335-.575-.347-1.149-.035-1.722l1.426-2.565L3.404 3.75H1.5v-1.5h2.846l.95 2z" fill="#333"/></g></svg>