<svg width="24" height="24" viewBox="0 0 24 24" fill="none" xmlns="http://www.w3.org/2000/svg"><mask id="mask0_21_10146" style="mask-type:alpha" maskUnits="userSpaceOnUse" x="0" y="0" width="24" height="24"><path fill="#D9D9D9" d="M0 0h24v24H0z"/></mask><g mask="url(#mask0_21_10146)"><path d="M11.25 16.75h1.5v-4h4v-1.5h-4v-4h-1.5v4h-4v1.5h4v4zm.752 4.75a9.254 9.254 0 01-3.706-.748 9.596 9.596 0 01-3.016-2.03 9.595 9.595 0 01-2.032-3.016 9.246 9.246 0 01-.748-3.704c0-1.314.25-2.55.748-3.706a9.596 9.596 0 012.03-3.016 9.594 9.594 0 013.016-2.032 9.246 9.246 0 013.704-.748c1.314 0 2.55.25 3.706.748a9.596 9.596 0 013.017 2.03 9.594 9.594 0 012.03 3.016 9.247 9.247 0 01.749 3.704 9.27 9.27 0 01-.748 3.706 9.596 9.596 0 01-2.03 3.017 9.595 9.595 0 01-3.016 2.03 9.247 9.247 0 01-3.704.749zM12 20c2.233 0 4.125-.775 5.675-2.325C19.225 16.125 20 14.233 20 12c0-2.233-.775-4.125-2.325-5.675C16.125 4.775 14.233 4 12 4c-2.233 0-4.125.775-5.675 2.325C4.775 7.875 4 9.767 4 12c0 2.233.775 4.125 2.325 5.675C7.875 19.225 9.767 20 12 20z" fill="#B2B2B2"/></g></svg>