<svg width="20" height="20" viewBox="0 0 20 20" fill="none" xmlns="http://www.w3.org/2000/svg"><mask id="mask0_10_924" style="mask-type:alpha" maskUnits="userSpaceOnUse" x="0" y="0" width="20" height="20"><path fill="#D9D9D9" d="M0 0h20v20H0z"/></mask><g mask="url(#mask0_10_924)"><path d="M8.209 12.115l4.907-3.116-4.907-3.115v6.23zm-.792 4.468v-2h-3.66a1.29 1.29 0 01-.951-.39 1.295 1.295 0 01-.389-.95V4.75c0-.375.13-.692.389-.949a1.3 1.3 0 01.95-.385h12.488c.375 0 .692.13.951.389.26.259.389.576.389.952v8.492c0 .375-.13.691-.389.948a1.3 1.3 0 01-.951.386h-3.66v2H7.417zm-3.66-3.084h12.487a.244.244 0 00.176-.08.244.244 0 00.08-.176V4.756a.244.244 0 00-.08-.176.245.245 0 00-.176-.08H3.757a.245.245 0 00-.176.08.245.245 0 00-.08.176v8.487c0 .064.026.123.08.176.053.054.112.08.176.08z" fill="#333"/></g></svg>