<svg width="27" height="14" viewBox="0 0 27 14" fill="none" xmlns="http://www.w3.org/2000/svg"><rect x=".5" y=".5" width="26" height="13" rx=".5" stroke="#fff"/><path d="M4.962 11V3.59h2.03c.76 0 1.41.133 1.95.4a2.8 2.8 0 011.26 1.21c.3.54.45 1.227.45 2.06s-.147 1.527-.44 2.08c-.294.553-.707.97-1.24 1.25-.534.273-1.167.41-1.9.41h-2.11zm1.48-1.2h.45c.466 0 .866-.083 1.2-.25.34-.173.6-.447.78-.82.18-.38.27-.87.27-1.47s-.09-1.08-.27-1.44c-.18-.367-.44-.63-.78-.79-.334-.167-.734-.25-1.2-.25h-.45V9.8zM12.1 11V3.59h4.56v1.24h-3.08v1.93h2.63V8h-2.63v3H12.1zm4.729 0l2.07-3.81-1.96-3.6h1.65l.74 1.54c.086.167.173.347.26.54.086.187.183.393.29.62h.04c.093-.227.18-.433.26-.62.08-.193.16-.373.24-.54l.7-1.54h1.56l-1.95 3.66 2.08 3.75h-1.64l-.83-1.64c-.087-.187-.18-.38-.28-.58l-.3-.64h-.04c-.094.227-.184.44-.27.64-.087.2-.177.393-.27.58l-.79 1.64h-1.56z" fill="#fff"/></svg>