<svg width="27" height="14" viewBox="0 0 27 14" fill="none" xmlns="http://www.w3.org/2000/svg"><path d="M26 13v1H1v-1h25zm0-12H1v13l-.103-.005a1 1 0 01-.892-.893L0 13V1a1 1 0 011-1h25a1 1 0 011 1v12l-.005.102a1 1 0 01-.893.893L26 14V1z" fill="#fff"/><path d="M16.828 11.004l2.07-3.81-1.96-3.6h1.65l.74 1.54c.087.166.174.346.26.54l.29.62h.04c.094-.227.18-.434.26-.62.08-.194.16-.374.24-.54l.7-1.54h1.56l-1.95 3.66 2.08 3.75h-1.64l-.83-1.64c-.087-.187-.18-.38-.28-.58l-.3-.64h-.04c-.093.226-.183.44-.27.64-.087.2-.177.393-.27.58l-.79 1.64h-1.56zm-4.728 0v-7.41h4.56v1.24h-3.08v1.93h2.63v1.24h-2.63v3H12.1zm-7.14 0v-7.41h2.03c.76 0 1.41.133 1.95.4a2.8 2.8 0 011.26 1.21c.3.54.45 1.226.45 2.06 0 .833-.146 1.526-.44 2.08-.292.553-.706.97-1.24 1.25-.532.273-1.166.41-1.9.41H4.96zm1.48-1.2h.45c.468 0 .868-.084 1.2-.25.34-.174.6-.447.78-.82.18-.38.27-.87.27-1.47s-.09-1.08-.27-1.44c-.18-.367-.44-.63-.78-.79-.332-.167-.732-.25-1.2-.25h-.45v5.02z" fill="#fff"/></svg>