<svg width="20" height="20" viewBox="0 0 20 20" fill="none" xmlns="http://www.w3.org/2000/svg"><mask id="mask0_10_915" style="mask-type:alpha" maskUnits="userSpaceOnUse" x="0" y="0" width="20" height="20"><path fill="#D9D9D9" d="M0 0h20v20H0z"/></mask><g mask="url(#mask0_10_915)"><path d="M4.414 15.405v-1.083h.84V8.937c0-1.176.37-2.205 1.11-3.087.74-.882 1.688-1.415 2.842-1.6V3.21c0-.22.077-.407.23-.561a.762.762 0 01.56-.231c.22 0 .407.077.561.23a.763.763 0 01.232.562v1.04c1.154.184 2.101.718 2.841 1.6.74.882 1.11 1.91 1.11 3.087v5.385h.84v1.083H4.415zm5.578 2.34a1.28 1.28 0 01-.945-.394 1.297 1.297 0 01-.39-.946h2.68c0 .374-.132.69-.395.95-.264.26-.58.39-.95.39zm-3.655-3.423h7.32V8.937c0-1.02-.354-1.885-1.064-2.595-.71-.71-1.575-1.065-2.596-1.065-1.02 0-1.885.355-2.595 1.065-.71.71-1.065 1.575-1.065 2.595v5.385z" fill="#333"/></g></svg>