<svg width="20" height="20" viewBox="0 0 20 20" fill="none" xmlns="http://www.w3.org/2000/svg"><mask id="mask0_10_934" style="mask-type:alpha" maskUnits="userSpaceOnUse" x="0" y="0" width="20" height="20"><path fill="#D9D9D9" d="M0 0h20v20H0z"/></mask><g mask="url(#mask0_10_934)"><path d="M2.305 16.648V3.064h7.583v3h7.807v10.584H2.305zm1.083-1.083h1.917v-1.917H3.388v1.917zm0-3.167h1.917V10.48H3.388v1.917zm0-3.167h1.917V7.314H3.388v1.917zm0-3.167h1.917V4.148H3.388v1.916zm3.5 9.5h1.917v-1.916H6.888v1.917zm0-3.166h1.917V10.48H6.888v1.917zm0-3.167h1.917V7.314H6.888v1.917zm0-3.167h1.917V4.148H6.888v1.916zm3 9.5h6.724V7.149H9.888V9.23h1.66v1.084h-1.66v2.083h1.66v1.083h-1.66v2.084zm3.82-5.25V9.232h1.084v1.084h-1.084zm0 3.167v-1.083h1.084v1.083h-1.084z" fill="#333"/></g></svg>