<svg width="24" height="24" viewBox="0 0 24 24" fill="none" xmlns="http://www.w3.org/2000/svg"><mask id="mask0_99_35297" style="mask-type:alpha" maskUnits="userSpaceOnUse" x="0" y="0" width="24" height="24"><path fill="#D9D9D9" d="M0 0h24v24H0z"/></mask><g mask="url(#mask0_99_35297)"><path d="M11.789 18.697a.476.476 0 01-.49-.485V12.75L5.628 5.887a.349.349 0 01-.04-.387.334.334 0 01.323-.203h12.18c.15 0 .257.068.323.203a.349.349 0 01-.04.387L12.7 12.75v5.463a.47.47 0 01-.139.346.468.468 0 01-.345.139h-.427zm.21-7.15l4.05-4.95H7.926L12 11.547z" fill="#B2B2B2"/></g></svg>