<svg width="24" height="24" viewBox="0 0 24 24" fill="none" xmlns="http://www.w3.org/2000/svg"><mask id="mask0_18_4572" style="mask-type:alpha" maskUnits="userSpaceOnUse" x="0" y="0" width="24" height="24"><path fill="#D9D9D9" d="M0 0h24v24H0z"/></mask><g mask="url(#mask0_18_4572)"><path d="M4.308 19.5c-.505 0-.933-.175-1.283-.525a1.745 1.745 0 01-.525-1.283V6.308c0-.505.175-.933.525-1.283.35-.35.778-.525 1.283-.525h15.384c.505 0 .933.175 1.283.525.35.35.525.778.525 1.283v11.384c0 .505-.175.933-.525 1.283-.35.35-.778.525-1.283.525H4.308zM12 12.558L4 7.442v10.25a.3.3 0 00.087.221.3.3 0 00.22.087h15.385a.3.3 0 00.221-.087.3.3 0 00.087-.22V7.442l-8 5.115zM12 11l7.846-5H4.154L12 11zM4 7.442V6v11.692a.3.3 0 00.087.221.3.3 0 00.22.087H4V7.442z" fill="#333"/></g></svg>