<svg width="20" height="20" viewBox="0 0 20 20" fill="none" xmlns="http://www.w3.org/2000/svg"><mask id="mask0_345_91983" style="mask-type:alpha" maskUnits="userSpaceOnUse" x="0" y="0" width="20" height="20"><path fill="#D9D9D9" d="M0 0h20v20H0z"/></mask><g mask="url(#mask0_345_91983)"><path d="M14.148 16.527L9.96 12.355a5.236 5.236 0 01-.959.305 4.88 4.88 0 01-1.05.113c-1.316 0-2.444-.465-3.383-1.397C3.63 10.444 3.16 9.32 3.16 8.003c0-.456.052-.89.154-1.306.103-.415.262-.8.478-1.154l2.952 2.936L8.49 6.732 5.57 3.796a5.095 5.095 0 012.381-.585c1.332 0 2.463.473 3.395 1.418.932.946 1.398 2.079 1.398 3.398 0 .35-.037.668-.11.958-.073.29-.176.576-.309.86l4.255 4.25c.173.179.26.396.26.65a.87.87 0 01-.258.64l-1.18 1.16a.831.831 0 01-.627.25.884.884 0 01-.627-.268zm.636-.896l.93-.909-4.696-4.654a2.76 2.76 0 00.517-1.11c.084-.395.125-.707.125-.935 0-1.019-.392-1.92-1.178-2.701-.785-.783-1.752-1.125-2.902-1.028l1.973 1.952a.674.674 0 01-.006.976L7.214 9.537a.658.658 0 01-.474.21.621.621 0 01-.461-.206L4.244 7.506c-.123 1.236.208 2.242.995 3.02.786.776 1.69 1.164 2.713 1.164.24 0 .57-.047.99-.142a3.02 3.02 0 001.188-.571l4.654 4.654z" fill="gray"/></g></svg>