<svg width="20" height="20" viewBox="0 0 20 20" fill="none" xmlns="http://www.w3.org/2000/svg"><mask id="mask0_289_62656" style="mask-type:alpha" maskUnits="userSpaceOnUse" x="0" y="0" width="20" height="20"><path fill="#D9D9D9" d="M0 0h20v20H0z"/></mask><g mask="url(#mask0_289_62656)"><path d="M4.87 15.633c-.65 0-1.202-.228-1.656-.683a2.259 2.259 0 01-.681-1.657H1.289V5.258c0-.375.13-.692.389-.951a1.29 1.29 0 01.95-.389h11.18v2.84h2.212l2.692 3.772v2.763h-1.34c0 .65-.227 1.202-.683 1.657a2.259 2.259 0 01-1.658.683c-.65 0-1.203-.228-1.657-.683a2.259 2.259 0 01-.681-1.657H7.212c0 .652-.228 1.205-.683 1.659a2.26 2.26 0 01-1.658.68zm.002-1.084c.353 0 .65-.12.893-.363.242-.243.364-.54.364-.893s-.122-.65-.364-.893a1.214 1.214 0 00-.893-.364c-.352 0-.65.122-.893.364-.242.243-.363.54-.363.893s.121.65.363.893c.243.242.54.363.893.363zm-2.5-2.34h.436c.178-.378.455-.681.831-.911.377-.23.788-.345 1.233-.345.435 0 .843.114 1.225.34.382.228.659.533.83.917h5.798V5H2.629a.245.245 0 00-.177.08.245.245 0 00-.08.177v6.952zm12.66 2.34c.353 0 .651-.12.893-.363.243-.243.364-.54.364-.893s-.121-.65-.364-.893a1.213 1.213 0 00-.892-.364c-.353 0-.65.122-.893.364-.243.243-.364.54-.364.893s.121.65.364.893c.242.242.54.363.893.363zm-1.224-3.84l3.692-.02-2.059-2.848h-1.633v2.869z" fill="gray"/></g></svg>