<svg width="20" height="20" viewBox="0 0 20 20" fill="none" xmlns="http://www.w3.org/2000/svg"><mask id="mask0_190_65161" style="mask-type:alpha" maskUnits="userSpaceOnUse" x="0" y="0" width="20" height="20"><path fill="#D9D9D9" d="M0 0h20v20H0z"/></mask><g mask="url(#mask0_190_65161)"><path d="M10 17.922c-2.096-1.817-3.669-3.508-4.717-5.074-1.048-1.565-1.572-3.002-1.572-4.31 0-1.924.622-3.48 1.866-4.671 1.244-1.19 2.719-1.786 4.424-1.786h.336c.113 0 .225.008.337.025V3.37a3.843 3.843 0 00-.328-.036 5.33 5.33 0 00-.345-.01c-1.43 0-2.627.49-3.592 1.468-.965.978-1.448 2.227-1.448 3.746 0 1.008.432 2.182 1.297 3.522.865 1.34 2.113 2.74 3.743 4.2 1.62-1.45 2.86-2.837 3.723-4.164.862-1.327 1.301-2.494 1.317-3.501V8.49h1.25v.103c-.016 1.303-.547 2.732-1.592 4.286-1.046 1.555-2.611 3.236-4.698 5.042zm.002-8.037c.415 0 .77-.148 1.064-.443.294-.295.441-.65.441-1.065 0-.414-.147-.769-.442-1.063a1.455 1.455 0 00-1.066-.442c-.414 0-.769.148-1.063.443-.294.296-.442.65-.442 1.065 0 .415.148.77.443 1.064.296.294.65.441 1.065.441zm4.999-3.22h1.25v-2.5h2.5v-1.25h-2.5v-2.5H15v2.5h-2.5v1.25H15v2.5z" fill="gray"/></g></svg>