<svg width="20" height="20" viewBox="0 0 20 20" fill="none" xmlns="http://www.w3.org/2000/svg"><mask id="mask0_10_897" style="mask-type:alpha" maskUnits="userSpaceOnUse" x="0" y="0" width="20" height="20"><path fill="#D9D9D9" d="M0 0h20v20H0z"/></mask><g mask="url(#mask0_10_897)"><path d="M11.701 7.83V6.567a6.902 6.902 0 011.35-.338 9.837 9.837 0 013.288.07v1.254a10.129 10.129 0 00-1.024-.165 8.334 8.334 0 00-2.24.075c-.471.078-.93.2-1.374.367zm0 4.9v-1.278a7.145 7.145 0 011.262-.338 8.69 8.69 0 011.536-.127c.349 0 .67.017.964.05.295.034.587.083.876.147v1.253a10.107 10.107 0 00-1.024-.164 7.924 7.924 0 00-2.24.087 8.51 8.51 0 00-1.374.37zm0-2.442V9.01c.44-.155.9-.27 1.38-.348a8.908 8.908 0 012.382-.066c.295.034.587.083.876.147v1.253a6.985 6.985 0 00-.951-.164 9.314 9.314 0 00-.889-.043c-.45 0-.907.042-1.372.125-.464.084-.94.209-1.426.375zM5.5 14.016c.69 0 1.365.088 2.025.266.66.177 1.304.412 1.934.705V5.545a7.502 7.502 0 00-1.9-.796A8.006 8.006 0 005.5 4.484c-.514 0-.995.035-1.443.107a6.308 6.308 0 00-1.38.396.253.253 0 00-.137.092.233.233 0 00-.04.132v9.048c0 .075.027.13.08.165a.18.18 0 00.177.012 6.079 6.079 0 011.283-.322c.46-.065.946-.098 1.46-.098zm5.042.971a9.04 9.04 0 011.934-.726 8.385 8.385 0 012.024-.245c.514 0 1.005.026 1.472.078.466.051.89.165 1.272.342a.179.179 0 00.176-.012c.054-.035.08-.09.08-.165V5.211a.215.215 0 00-.04-.128.311.311 0 00-.136-.096 10.73 10.73 0 00-1.39-.375 7.543 7.543 0 00-1.434-.128c-.704 0-1.39.088-2.057.265a7.503 7.503 0 00-1.901.796v9.442zm-.542 1.5a11.198 11.198 0 00-2.153-1.003 7.203 7.203 0 00-2.347-.385c-.453 0-.907.032-1.363.096a6.921 6.921 0 00-1.324.32 1 1 0 01-.952-.116c-.296-.201-.444-.487-.444-.86V5.055a1.097 1.097 0 01.664-1.013 8.82 8.82 0 011.68-.484A9.656 9.656 0 015.5 3.4c.796 0 1.575.1 2.334.302A8.96 8.96 0 0110 4.59a10.33 10.33 0 012.176-.878A8.696 8.696 0 0114.5 3.4c.59 0 1.17.052 1.74.157a8.82 8.82 0 011.68.484c.202.084.367.218.494.404.127.185.19.388.19.61v9.485c0 .358-.111.645-.335.861-.223.216-.46.277-.713.182a6.775 6.775 0 00-1.502-.381 11.696 11.696 0 00-1.554-.103c-.814 0-1.596.128-2.346.385-.75.256-1.468.59-2.154 1.003z" fill="#333"/></g></svg>