<svg width="18" height="18" viewBox="0 0 18 18" fill="none" xmlns="http://www.w3.org/2000/svg"><mask id="mask0_419_94112" style="mask-type:alpha" maskUnits="userSpaceOnUse" x="0" y="0" width="18" height="18"><path fill="#D9D9D9" d="M0 0h17.5v17.5H0z"/></mask><g mask="url(#mask0_419_94112)"><path d="M8.75 15.68a6.02 6.02 0 01-2.417-.489 6.277 6.277 0 01-1.966-1.326 6.276 6.276 0 01-1.326-1.966 6.019 6.019 0 01-.488-2.418h1.093c0 1.422.496 2.628 1.486 3.619.99.99 2.197 1.486 3.619 1.486 1.421 0 2.628-.496 3.618-1.486.99-.99 1.486-2.197 1.486-3.619 0-1.422-.495-2.628-1.486-3.618-.99-.99-2.197-1.486-3.618-1.486h-.194l1.158 1.158-.768.791-2.496-2.503 2.51-2.503.768.791-1.172 1.172h.194c.86 0 1.665.163 2.417.488a6.275 6.275 0 011.966 1.327 6.276 6.276 0 011.327 1.966 6.02 6.02 0 01.488 2.417 6.02 6.02 0 01-.488 2.418 6.276 6.276 0 01-1.327 1.966 6.276 6.276 0 01-1.966 1.326 6.02 6.02 0 01-2.417.488z" fill="gray"/></g></svg>