<svg width="20" height="20" viewBox="0 0 20 20" fill="none" xmlns="http://www.w3.org/2000/svg"><mask id="mask0_10_906" style="mask-type:alpha" maskUnits="userSpaceOnUse" x="0" y="0" width="20" height="20"><path fill="#D9D9D9" d="M0 0h20v20H0z"/></mask><g mask="url(#mask0_10_906)"><path d="M10.041 13.173a.702.702 0 00.541-.22.766.766 0 00.204-.541.69.69 0 00-.216-.525.743.743 0 00-.53-.205.738.738 0 00-.53.205.692.692 0 00-.214.524c0 .214.072.394.216.541.144.147.32.22.53.22zm-.506-2.776h1.006c.006-.163.017-.304.033-.422a.94.94 0 01.108-.328c.056-.1.126-.204.212-.312a5.14 5.14 0 01.335-.377c.235-.235.476-.487.722-.756.246-.268.37-.656.37-1.162 0-.694-.237-1.235-.71-1.625a2.506 2.506 0 00-1.642-.585c-.58 0-1.067.173-1.458.518-.391.346-.667.713-.829 1.1l.925.41c.105-.23.253-.466.446-.71.192-.246.503-.368.932-.368.52 0 .878.14 1.075.418.197.28.295.566.295.86a1.1 1.1 0 01-.354.84c-.236.22-.464.44-.685.658-.165.167-.296.31-.393.43a1.788 1.788 0 00-.24.384 1.46 1.46 0 00-.12.444 5.036 5.036 0 00-.028.583zm.466 8.011l-2.823-2.823h-2.42c-.366 0-.68-.132-.944-.396a1.289 1.289 0 01-.396-.944V3.758c0-.366.132-.68.396-.944.264-.264.578-.396.944-.396h10.487c.375 0 .692.132.951.396a1.3 1.3 0 01.389.944v10.487c0 .365-.13.68-.389.944a1.282 1.282 0 01-.951.396h-2.42l-2.824 2.823zm-5.243-3.907h2.864l2.38 2.38 2.358-2.38h2.885a.25.25 0 00.184-.072.25.25 0 00.072-.184V3.758a.25.25 0 00-.072-.185.25.25 0 00-.184-.072H4.758a.25.25 0 00-.185.072.25.25 0 00-.072.185v10.487a.25.25 0 00.072.184.25.25 0 00.185.072z" fill="#333"/></g></svg>