<svg width="24" height="24" viewBox="0 0 24 24" fill="none" xmlns="http://www.w3.org/2000/svg"><mask id="mask0_172_40943" style="mask-type:alpha" maskUnits="userSpaceOnUse" x="0" y="0" width="24" height="24"><path fill="#D9D9D9" d="M0 0h24v24H0z"/></mask><g mask="url(#mask0_172_40943)"><path d="M12.003 11.865c.497 0 .923-.177 1.276-.531.353-.355.53-.78.53-1.278 0-.497-.177-.923-.532-1.276A1.746 1.746 0 0012 8.25c-.497 0-.923.177-1.276.531-.353.355-.53.78-.53 1.278s.178.923.532 1.277c.354.353.78.53 1.278.53zM12 19.514c1.957-1.752 3.454-3.432 4.491-5.04 1.038-1.608 1.557-3.017 1.557-4.226 0-1.823-.579-3.322-1.737-4.496-1.159-1.174-2.596-1.761-4.31-1.761-1.716 0-3.153.587-4.311 1.761-1.159 1.174-1.738 2.673-1.738 4.496 0 1.209.519 2.618 1.557 4.226 1.038 1.608 2.535 3.288 4.491 5.04zm0 1.995c-2.517-2.18-4.404-4.21-5.661-6.088-1.258-1.878-1.887-3.602-1.887-5.173 0-2.308.747-4.176 2.24-5.605C8.184 3.214 9.954 2.5 12 2.5s3.816.714 5.309 2.143c1.493 1.43 2.24 3.297 2.24 5.605 0 1.57-.63 3.295-1.887 5.173C16.405 17.3 14.518 19.33 12 21.51z" fill="#333"/></g></svg>