<svg width="20" height="20" viewBox="0 0 20 20" fill="none" xmlns="http://www.w3.org/2000/svg"><mask id="mask0_226_6020" style="mask-type:alpha" maskUnits="userSpaceOnUse" x="0" y="0" width="20" height="20"><path fill="#D9D9D9" d="M0 0h20v20H0z"/></mask><g mask="url(#mask0_226_6020)"><path d="M4.424 17.083c-.42 0-.777-.146-1.069-.438a1.454 1.454 0 01-.437-1.069V4.422c0-.42.146-.777.437-1.068a1.454 1.454 0 011.07-.438H9.68v1.25H4.424a.245.245 0 00-.176.08.245.245 0 00-.08.176v11.154c0 .064.027.123.08.176.054.054.112.08.176.08h11.154a.245.245 0 00.176-.08.245.245 0 00.08-.176V10.32h1.25v5.256c0 .421-.145.777-.437 1.07a1.454 1.454 0 01-1.069.437H4.424zm3.677-4.305l-.878-.878 7.734-7.734h-3.289v-1.25h5.417v5.417h-1.25V5.044L8.1 12.778z" fill="gray"/></g></svg>