<svg width="20" height="20" viewBox="0 0 20 20" fill="none" xmlns="http://www.w3.org/2000/svg"><mask id="mask0_172_37951" style="mask-type:alpha" maskUnits="userSpaceOnUse" x="0" y="0" width="20" height="20"><path fill="#D9D9D9" d="M0 0h20v20H0z"/></mask><g mask="url(#mask0_172_37951)"><path d="M4.754 16.587c-.375 0-.692-.13-.951-.389a1.294 1.294 0 01-.389-.951V4.76c0-.38.129-.703.385-.966.257-.263.576-.388.955-.374h6.984l-1.083 1.083H4.754a.245.245 0 00-.176.08.245.245 0 00-.08.177v10.487c0 .064.026.123.08.176.053.054.112.08.176.08H15.24a.244.244 0 00.176-.08.244.244 0 00.08-.176V9.314l1.084-1.083v7.016c0 .375-.13.692-.389.951a1.29 1.29 0 01-.951.389H4.754zm3.66-5V9.08l7.279-7.278a.988.988 0 01.364-.242 1.23 1.23 0 01.807 0c.13.046.25.122.36.23l.943.922c.12.115.207.242.257.38a1.203 1.203 0 01.004.83c-.048.132-.13.255-.245.37l-7.303 7.295H8.414zm1.083-1.084h.935l5.173-5.173-.457-.477-.493-.473-5.158 5.157v.966z" fill="gray"/></g></svg>