<svg width="11" height="11" viewBox="0 0 11 11" fill="none" xmlns="http://www.w3.org/2000/svg"><path d="M1.072 10.533c-.3 0-.554-.103-.761-.31A1.035 1.035 0 010 9.46V1.07C0 .77.104.517.31.31.519.104.773 0 1.073 0H5.01v.867H1.072A.196.196 0 00.93.93a.196.196 0 00-.064.14v8.39c0 .052.021.099.064.141.042.043.09.065.14.065h8.39a.196.196 0 00.141-.065.196.196 0 00.065-.14V5.522h.866V9.46c0 .3-.103.554-.31.761a1.034 1.034 0 01-.762.311H1.07zm2.657-3.11l-.619-.62L9.048.868H6.866V0h3.666v3.667h-.866V1.486L3.729 7.423z" fill="#333"/></svg>