<svg width="20" height="20" viewBox="0 0 20 20" fill="none" xmlns="http://www.w3.org/2000/svg"><mask id="mask0_212_69758" style="mask-type:alpha" maskUnits="userSpaceOnUse" x="0" y="0" width="20" height="20"><path fill="#D9D9D9" d="M0 0h20v20H0z"/></mask><g mask="url(#mask0_212_69758)"><path d="M17.585 5.756v8.487c0 .365-.13.68-.389.944a1.282 1.282 0 01-.951.396H3.758c-.366 0-.68-.132-.944-.396a1.288 1.288 0 01-.396-.944V5.756c0-.366.132-.68.396-.944.264-.264.578-.396.944-.396h12.487c.375 0 .692.132.951.396a1.3 1.3 0 01.389.944zM3.5 7.336h13v-1.58a.244.244 0 00-.08-.176.245.245 0 00-.176-.08H3.758a.245.245 0 00-.176.08.245.245 0 00-.08.176v1.58zm0 2.327v4.58c0 .064.027.123.08.176.054.054.113.08.177.08h12.487a.244.244 0 00.176-.08.244.244 0 00.08-.176v-4.58h-13z" fill="gray"/></g></svg>