<svg width="24" height="24" viewBox="0 0 24 24" fill="none" xmlns="http://www.w3.org/2000/svg"><mask id="mask0_172_40954" style="mask-type:alpha" maskUnits="userSpaceOnUse" x="0" y="0" width="24" height="24"><path fill="#D9D9D9" d="M0 0h24v24H0z"/></mask><g mask="url(#mask0_172_40954)"><path d="M5 19V5v4.33-.522V19zm2.25-6.25h5.275c.027-.27.086-.53.178-.78.091-.25.205-.49.341-.72H7.25v1.5zm0 4h3.704c.225-.256.477-.473.754-.649.277-.176.567-.321.87-.435a1.256 1.256 0 01-.107-.2 1.817 1.817 0 01-.077-.216H7.25v1.5zm0-8h9.5v-1.5h-9.5v1.5zM5.308 20.5c-.505 0-.933-.175-1.283-.525a1.745 1.745 0 01-.525-1.283V5.308c0-.505.175-.933.525-1.283.35-.35.778-.525 1.283-.525h13.384c.505 0 .933.175 1.283.525.35.35.525.778.525 1.283v5.43a4.015 4.015 0 00-.653-.808 3.707 3.707 0 00-.847-.6V5.309a.294.294 0 00-.096-.212.294.294 0 00-.212-.096H5.308a.294.294 0 00-.212.096.294.294 0 00-.096.212v13.384c0 .077.032.148.096.212a.294.294 0 00.212.096h4.723a2.278 2.278 0 00-.031.37v1.13H5.308zm11.634-5c-.623 0-1.153-.22-1.592-.658a2.169 2.169 0 01-.658-1.592c0-.623.22-1.154.658-1.592.439-.439.97-.658 1.592-.658.623 0 1.154.22 1.593.658.438.438.657.969.657 1.592 0 .623-.219 1.154-.657 1.592a2.17 2.17 0 01-1.593.658zm-4.75 5v-1.15c0-.355.092-.681.274-.978.183-.297.44-.51.773-.641a9.25 9.25 0 011.804-.548 9.866 9.866 0 013.779 0 9.72 9.72 0 011.824.548c.332.13.59.344.772.641.183.297.274.623.274.978v1.15h-9.5z" fill="#333"/></g></svg>