<svg width="20" height="20" viewBox="0 0 20 20" fill="none" xmlns="http://www.w3.org/2000/svg"><mask id="mask0_26_14216" style="mask-type:alpha" maskUnits="userSpaceOnUse" x="0" y="0" width="20" height="20"><path fill="#D9D9D9" d="M0 0h20v20H0z"/></mask><g mask="url(#mask0_26_14216)"><path d="M6.757 16.582c-.37 0-.686-.13-.948-.392a1.291 1.291 0 01-.392-.948V5.5h-1V4.415H8v-.903h4v.903h3.583V5.5h-1v9.734c0 .386-.13.707-.388.964a1.3 1.3 0 01-.951.385H6.757zM13.5 5.5h-7v9.743a.25.25 0 00.072.185.25.25 0 00.185.072h6.487a.245.245 0 00.176-.08.245.245 0 00.08-.177V5.5zM8.337 14H9.42V7H8.337v7zm2.243 0h1.083V7H10.58v7z" fill="gray"/></g></svg>