<svg width="24" height="24" viewBox="0 0 24 24" fill="none" xmlns="http://www.w3.org/2000/svg"><mask id="mask0_172_40892" style="mask-type:alpha" maskUnits="userSpaceOnUse" x="0" y="0" width="24" height="24"><path fill="#D9D9D9" d="M0 0h24v24H0z"/></mask><g mask="url(#mask0_172_40892)"><path d="M5.308 20.5c-.499 0-.925-.177-1.278-.53a1.742 1.742 0 01-.53-1.278V5.308c0-.499.177-.925.53-1.278.353-.353.78-.53 1.278-.53h4.45a2.21 2.21 0 01.727-1.416c.421-.39.927-.584 1.515-.584a2.17 2.17 0 011.525.584c.422.389.66.86.717 1.416h4.45c.499 0 .925.177 1.278.53.353.353.53.78.53 1.278v13.384c0 .499-.177.925-.53 1.278-.353.353-.78.53-1.278.53H5.308zm0-1.5h13.384a.294.294 0 00.212-.096.294.294 0 00.096-.212V5.308a.294.294 0 00-.096-.212.294.294 0 00-.212-.096H5.308a.294.294 0 00-.212.096.294.294 0 00-.096.212v13.384c0 .077.032.148.096.212a.294.294 0 00.212.096zm1.942-2.366h6.5v-1.5h-6.5v1.5zm0-3.884h9.5v-1.5h-9.5v1.5zm0-3.885h9.5v-1.5h-9.5v1.5zM12 4.346a.728.728 0 00.75-.75.728.728 0 00-.75-.75.728.728 0 00-.75.75.728.728 0 00.75.75z" fill="#333"/></g></svg>