<svg width="24" height="24" viewBox="0 0 24 24" fill="none" xmlns="http://www.w3.org/2000/svg"><mask id="mask0_302_155293" style="mask-type:alpha" maskUnits="userSpaceOnUse" x="0" y="0" width="24" height="24"><path fill="#D9D9D9" d="M0 0h24v24H0z"/></mask><g mask="url(#mask0_302_155293)"><path d="M17.673 15.644c0 1.624-.565 3.006-1.695 4.146-1.13 1.14-2.506 1.71-4.127 1.71-1.62 0-2.998-.57-4.131-1.71-1.134-1.14-1.7-2.522-1.7-4.146v-8.99c0-1.154.4-2.135 1.202-2.942C8.022 2.904 9 2.5 10.154 2.5s2.131.404 2.933 1.212c.801.807 1.202 1.788 1.202 2.942v8.51a2.38 2.38 0 01-.707 1.733 2.328 2.328 0 01-1.725.718 2.372 2.372 0 01-1.734-.713 2.357 2.357 0 01-.719-1.739V6.386h1.5v8.779a.93.93 0 00.943.952.904.904 0 00.671-.275.928.928 0 00.27-.677v-8.52c-.01-.738-.266-1.364-.769-1.876C11.517 4.256 10.895 4 10.154 4c-.738 0-1.361.258-1.87.773a2.576 2.576 0 00-.764 1.88v8.991c-.01 1.21.407 2.237 1.253 3.085.846.847 1.874 1.271 3.082 1.271 1.19 0 2.203-.424 3.037-1.271.834-.848 1.26-1.876 1.281-3.085v-9.26h1.5v9.26z" fill="#B2B2B2"/></g></svg>