<svg width="21" height="21" viewBox="0 0 21 21" fill="none" xmlns="http://www.w3.org/2000/svg"><mask id="mask0_172_64521" style="mask-type:alpha" maskUnits="userSpaceOnUse" x="0" y="0" width="21" height="21"><path fill="#D9D9D9" d="M0 0h21v21H0z"/></mask><g mask="url(#mask0_172_64521)"><path d="M10.496 17.496c.778 0 1.528-.123 2.25-.368a6.69 6.69 0 001.987-1.079 7.044 7.044 0 00-4.237-1.397c-.777 0-1.527.116-2.248.348a6.428 6.428 0 00-1.988 1.05 6.69 6.69 0 001.988 1.078 6.932 6.932 0 002.248.368zm2.151-7.318l-.936-.936c.101-.133.18-.281.234-.444.055-.163.083-.326.083-.49 0-.42-.15-.78-.45-1.08-.3-.3-.66-.45-1.082-.45a1.556 1.556 0 00-.934.316l-.935-.936a2.63 2.63 0 01.865-.52 2.936 2.936 0 011.008-.173c.787 0 1.458.276 2.01.83.554.553.83 1.223.83 2.01 0 .353-.057.689-.173 1.008a2.636 2.636 0 01-.52.865zm4.836 4.836l-.957-.957a6.978 6.978 0 00.97-3.56c0-1.955-.678-3.61-2.034-4.966-1.356-1.357-3.011-2.035-4.966-2.035a6.979 6.979 0 00-3.56.971l-.958-.957a8.36 8.36 0 014.518-1.326 8.1 8.1 0 013.242.654 8.392 8.392 0 012.64 1.777 8.393 8.393 0 011.776 2.64 8.093 8.093 0 01.655 3.241 8.358 8.358 0 01-1.326 4.518zm-6.99 3.795a8.07 8.07 0 01-3.238-.656 8.42 8.42 0 01-2.638-1.777 8.392 8.392 0 01-1.778-2.639 8.088 8.088 0 01-.655-3.24c0-.878.132-1.73.395-2.558a8.071 8.071 0 011.17-2.31L1.117 2.973l.936-.935 17.072 17.073-.935.935L4.71 6.591a6.822 6.822 0 00-1.214 3.905c0 .867.15 1.696.453 2.487a6.79 6.79 0 001.317 2.144 9.636 9.636 0 012.482-1.317 8.16 8.16 0 012.747-.47c.667 0 1.323.09 1.97.267a9.65 9.65 0 011.859.726l2.05 2.05a8.04 8.04 0 01-2.7 1.807 8.371 8.371 0 01-3.182.619z" fill="gray"/></g></svg>