<svg width="20" height="20" viewBox="0 0 20 20" fill="none" xmlns="http://www.w3.org/2000/svg"><mask id="mask0_289_14772" style="mask-type:alpha" maskUnits="userSpaceOnUse" x="0" y="0" width="20" height="20"><path fill="#D9D9D9" d="M0 0h20v20H0z"/></mask><g mask="url(#mask0_289_14772)"><path d="M9.997 12.825l-3.39-3.391.774-.758 2.075 2.075V3.418h1.083v7.333l2.075-2.075.774.758-3.39 3.391zm-4.249 2.76c-.375 0-.692-.13-.949-.389a1.299 1.299 0 01-.385-.951v-1.26h1.083v1.26c0 .064.027.123.08.176.054.054.113.08.177.08h8.487a.244.244 0 00.176-.08.244.244 0 00.08-.176v-1.26h1.084v1.26c0 .375-.13.692-.389.951-.26.26-.576.389-.952.389H5.748z" fill="#333"/></g></svg>