<svg width="20" height="20" viewBox="0 0 20 20" fill="none" xmlns="http://www.w3.org/2000/svg"><mask id="mask0_303_18910" style="mask-type:alpha" maskUnits="userSpaceOnUse" x="0" y="0" width="20" height="20"><path fill="#D9D9D9" d="M0 0h20v20H0z"/></mask><g mask="url(#mask0_303_18910)"><path d="M9.453 9.68c.313-.358.544-.753.693-1.185a4.066 4.066 0 000-2.657 3.797 3.797 0 00-.693-1.2 1.9 1.9 0 01.313-.051 4.36 4.36 0 01.312-.01c.732-.027 1.354.212 1.865.718.51.506.766 1.127.766 1.865 0 .737-.255 1.358-.766 1.864s-1.133.746-1.865.719c-.111 0-.219-.004-.323-.01a1.446 1.446 0 01-.302-.053zm3.917 5.742v-1.371a3.22 3.22 0 00-.34-1.464 2.845 2.845 0 00-1.016-1.118 12.4 12.4 0 012.504.809c.794.354 1.191.945 1.191 1.773v1.371h-2.34zm2.59-4.631v-1.75h-1.75V7.958h1.75v-1.75h1.083v1.75h1.75V9.04h-1.75v1.75h-1.084zM6.285 9.743c-.718 0-1.329-.25-1.83-.753a2.492 2.492 0 01-.753-1.83c0-.72.251-1.33.753-1.831a2.492 2.492 0 011.83-.753c.72 0 1.33.251 1.831.753.502.502.753 1.112.753 1.83 0 .72-.251 1.33-.753 1.831a2.492 2.492 0 01-1.83.753zm-5.583 5.68v-1.437c0-.288.076-.556.228-.804.153-.248.366-.458.639-.631a8.124 8.124 0 012.275-.982 9.632 9.632 0 012.432-.313c.817 0 1.624.111 2.42.334.797.223 1.565.543 2.306.96.26.174.469.384.628.632.16.248.239.516.239.804v1.436H.703zM6.276 8.66c.41 0 .764-.146 1.063-.438a1.42 1.42 0 00.447-1.052c0-.41-.149-.764-.447-1.063a1.452 1.452 0 00-1.063-.447c-.41 0-.76.149-1.052.447a1.469 1.469 0 00-.438 1.063c0 .41.146.76.438 1.052.292.292.642.438 1.052.438zm-4.49 5.68h9v-.354a.47.47 0 00-.094-.281 1.05 1.05 0 00-.263-.247c-.635-.34-1.3-.611-1.998-.815a7.927 7.927 0 00-4.31-.01 8.777 8.777 0 00-1.977.825c-.112.077-.2.159-.263.247a.474.474 0 00-.095.281v.353z" fill="gray"/></g></svg>