<svg width="20" height="20" viewBox="0 0 20 20" fill="none" xmlns="http://www.w3.org/2000/svg"><mask id="mask0_26_14234" style="mask-type:alpha" maskUnits="userSpaceOnUse" x="0" y="0" width="20" height="20"><path fill="#D9D9D9" d="M0 0h20v20H0z"/></mask><g mask="url(#mask0_26_14234)"><path d="M5.624 17.63c-.36 0-.665-.126-.914-.378a1.257 1.257 0 01-.373-.918c0-.36.126-.665.377-.914.252-.249.559-.373.919-.373s.665.126.914.377c.248.253.373.559.373.919s-.126.665-.378.914a1.258 1.258 0 01-.918.373zm8.743 0c-.36 0-.665-.126-.913-.378a1.257 1.257 0 01-.374-.918c0-.36.126-.665.378-.914s.558-.373.918-.373.665.126.914.377c.249.253.373.559.373.919s-.126.665-.377.914a1.258 1.258 0 01-.919.373zM5.16 5.29L7 9.547h6.119c.048 0 .09-.012.128-.036a.315.315 0 00.096-.1l1.652-3.896c.032-.059.035-.111.008-.157-.027-.045-.072-.068-.136-.068H5.159zm-.454-1.083H15.86c.216 0 .373.08.471.237a.52.52 0 01.036.503l-2.032 4.876a1.347 1.347 0 01-.473.585c-.21.148-.45.222-.718.222h-6.54l-.923 1.596c-.043.064-.044.134-.004.208.04.075.1.113.18.113h9.806v1.083H5.878c-.528 0-.914-.216-1.158-.649-.245-.433-.238-.865.022-1.296L5.89 9.713 3.13 3.29H1.416V2.207H3.85l.854 2z" fill="gray"/></g></svg>