<svg width="20" height="20" viewBox="0 0 20 20" fill="none" xmlns="http://www.w3.org/2000/svg"><mask id="mask0_226_69845" style="mask-type:alpha" maskUnits="userSpaceOnUse" x="0" y="0" width="20" height="20"><path fill="#D9D9D9" d="M0 0h20v20H0z"/></mask><g mask="url(#mask0_226_69845)"><path d="M9.376 16.307V10.36L4.168 7.343v5.804c0 .043.01.083.032.12a.27.27 0 00.096.097l5.08 2.943zm1.25 0l5.08-2.943a.277.277 0 00.097-.097.24.24 0 00.032-.12V7.343l-5.209 3.016v5.948zm-1.378 1.364l-5.577-3.21a1.484 1.484 0 01-.753-1.301V6.84a1.476 1.476 0 01.753-1.302l5.577-3.21a1.484 1.484 0 011.506 0l5.577 3.21a1.484 1.484 0 01.754 1.302v6.32a1.476 1.476 0 01-.754 1.301l-5.577 3.21a1.484 1.484 0 01-1.506 0zm3.966-10.255l1.933-1.109-5.018-2.902a.24.24 0 00-.128-.04.24.24 0 00-.128.04l-1.81 1.042 5.151 2.97zm-3.213 1.866L11.94 8.16 6.793 5.186 4.855 6.307l5.146 2.975z" fill="gray"/></g></svg>