<svg width="20" height="20" viewBox="0 0 20 20" fill="none" xmlns="http://www.w3.org/2000/svg"><mask id="mask0_289_61274" style="mask-type:alpha" maskUnits="userSpaceOnUse" x="0" y="0" width="20" height="20"><path fill="#D9D9D9" d="M0 0h20v20H0z"/></mask><g mask="url(#mask0_289_61274)"><path d="M13.23 16.585V8.662c0-.882-.307-1.629-.92-2.242-.612-.612-1.36-.919-2.24-.919-.882 0-1.629.307-2.242.92-.612.612-.919 1.36-.919 2.24v2.954l1.388-1.388.774.774-2.703 2.704L3.664 11l.774-.774 1.388 1.388V8.662c0-1.181.412-2.183 1.236-3.008.825-.824 1.827-1.236 3.007-1.236 1.181 0 2.183.412 3.008 1.236.824.825 1.236 1.827 1.236 3.008v7.923H13.23z" fill="gray"/></g></svg>