<svg width="27" height="14" viewBox="0 0 27 14" fill="none" xmlns="http://www.w3.org/2000/svg"><path d="M26 13v1H1v-1h25zm0-12H1v13l-.103-.005a1 1 0 01-.892-.893L0 13V1a1 1 0 011-1h25a1 1 0 011 1v12l-.005.102a1 1 0 01-.893.893L26 14V1z" fill="#fff"/><path d="M18.889 11.004v-7.41h4.56v1.24h-3.08v1.93h2.63v1.24h-2.63v3h-1.48zm-7.139 0v-7.41h2.03c.76 0 1.41.133 1.95.4a2.8 2.8 0 011.26 1.21c.3.54.45 1.226.45 2.06 0 .833-.147 1.526-.44 2.08-.293.553-.707.97-1.24 1.25-.533.273-1.167.41-1.9.41h-2.11zm1.48-1.2h.45c.467 0 .867-.084 1.2-.25.34-.174.6-.447.78-.82.18-.38.27-.87.27-1.47s-.09-1.08-.27-1.44c-.18-.367-.44-.63-.78-.79-.333-.167-.733-.25-1.2-.25h-.45v5.02zm-8.15 1.2v-7.41h2.43a4.56 4.56 0 011.47.22c.44.146.787.39 1.04.73.26.333.39.793.39 1.38 0 .56-.13 1.023-.39 1.39-.253.36-.597.626-1.03.8-.427.173-.907.26-1.44.26h-.99v2.63H5.08zm1.48-3.8h.89c.507 0 .883-.107 1.13-.32.253-.214.38-.534.38-.96 0-.427-.133-.724-.4-.89-.26-.174-.647-.26-1.16-.26h-.84v2.43z" fill="#fff"/></svg>