<svg width="20" height="20" viewBox="0 0 20 20" fill="none" xmlns="http://www.w3.org/2000/svg"><mask id="mask0_422_59015" style="mask-type:alpha" maskUnits="userSpaceOnUse" x="0" y="0" width="20" height="20"><path fill="#D9D9D9" d="M0 0h20v20H0z"/></mask><g mask="url(#mask0_422_59015)"><path d="M5.624 17.634c-.36 0-.665-.126-.914-.378a1.257 1.257 0 01-.373-.918c0-.36.125-.665.377-.914s.558-.373.919-.373c.36 0 .664.126.913.377.25.252.374.558.374.919 0 .36-.126.665-.378.913a1.258 1.258 0 01-.918.374zm8.743 0c-.36 0-.665-.126-.914-.378a1.257 1.257 0 01-.373-.918c0-.36.126-.665.378-.914s.558-.373.918-.373.665.126.914.377c.249.252.373.558.373.919 0 .36-.126.665-.377.913a1.258 1.258 0 01-.919.374zM5.158 5.294L7 9.551h6.118a.236.236 0 00.129-.036.314.314 0 00.096-.1l1.652-3.896c.032-.06.035-.111.008-.157-.027-.045-.072-.068-.136-.068H5.158zm-.453-1.083H15.86c.216 0 .373.079.47.237a.52.52 0 01.036.503l-2.032 4.876a1.348 1.348 0 01-.472.585c-.21.148-.45.222-.719.222H6.604l-.923 1.596c-.043.064-.044.134-.004.208.04.075.1.113.18.113h9.806v1.083H5.878c-.528 0-.914-.216-1.159-.65-.244-.432-.237-.864.023-1.296l1.147-1.97-2.76-6.424H1.416V2.211H3.85l.854 2z" fill="gray"/></g></svg>