<svg width="24" height="24" viewBox="0 0 24 24" fill="none" xmlns="http://www.w3.org/2000/svg"><mask id="mask0_134_36786" style="mask-type:alpha" maskUnits="userSpaceOnUse" x="0" y="0" width="24" height="24"><path fill="#D9D9D9" d="M0 0h24v24H0z"/></mask><g mask="url(#mask0_134_36786)"><path d="M2.5 21.038V4.308c0-.505.175-.933.525-1.283.35-.35.778-.525 1.283-.525h15.384c.505 0 .933.175 1.283.525.35.35.525.778.525 1.283v11.384c0 .505-.175.933-.525 1.283-.35.35-.778.525-1.283.525H6.038L2.5 21.038zM5.4 16h14.292a.294.294 0 00.212-.096.294.294 0 00.096-.212V4.308a.294.294 0 00-.096-.212.294.294 0 00-.212-.096H4.308a.294.294 0 00-.212.096.294.294 0 00-.096.212v13.077L5.4 16z" fill="#333"/></g></svg>