<svg width="24" height="24" viewBox="0 0 24 24" fill="none" xmlns="http://www.w3.org/2000/svg"><mask id="mask0_172_40899" style="mask-type:alpha" maskUnits="userSpaceOnUse" x="0" y="0" width="24" height="24"><path fill="#D9D9D9" d="M0 0h24v24H0z"/></mask><g mask="url(#mask0_172_40899)"><path d="M11.25 19.568V12.43L5 8.81v6.966c0 .051.013.1.038.144a.33.33 0 00.116.115l6.096 3.533zm1.5 0l6.096-3.533a.331.331 0 00.116-.115.286.286 0 00.038-.144V8.81l-6.25 3.62v7.138zm-1.654 1.637l-6.692-3.852A1.78 1.78 0 013.5 15.79V8.207a1.771 1.771 0 01.904-1.562l6.692-3.852a1.78 1.78 0 011.808 0l6.692 3.852a1.78 1.78 0 01.904 1.562v7.584a1.771 1.771 0 01-.904 1.562l-6.692 3.852a1.78 1.78 0 01-1.808 0zm4.76-12.306l2.319-1.33-6.021-3.484A.288.288 0 0012 4.037a.288.288 0 00-.154.048l-2.171 1.25 6.18 3.564zM12 11.137l2.325-1.346-6.175-3.57-2.325 1.347L12 11.138z" fill="#333"/></g></svg>