<svg width="24" height="24" viewBox="0 0 24 24" fill="none" xmlns="http://www.w3.org/2000/svg"><mask id="mask0_18_3002" style="mask-type:alpha" maskUnits="userSpaceOnUse" x="0" y="0" width="24" height="24"><path fill="#D9D9D9" d="M0 0h24v24H0z"/></mask><g mask="url(#mask0_18_3002)"><path d="M9.308 18.75v-1.5H20.5v1.5H9.308zm0-6v-1.5H20.5v1.5H9.308zm0-6v-1.5H20.5v1.5H9.308zM5.164 19.662a1.6 1.6 0 01-1.175-.489A1.601 1.601 0 013.5 18c0-.457.163-.849.489-1.174a1.601 1.601 0 011.175-.49 1.6 1.6 0 011.174.49c.326.325.489.717.489 1.174a1.6 1.6 0 01-.489 1.175 1.601 1.601 0 01-1.175.489zm0-6a1.6 1.6 0 01-1.175-.489A1.601 1.601 0 013.5 12c0-.457.163-.849.489-1.174a1.601 1.601 0 011.175-.49 1.6 1.6 0 011.174.49c.326.325.489.717.489 1.174a1.6 1.6 0 01-.489 1.175 1.601 1.601 0 01-1.175.489zm0-6a1.6 1.6 0 01-1.175-.489A1.601 1.601 0 013.5 6c0-.457.163-.849.489-1.174a1.601 1.601 0 011.175-.49 1.6 1.6 0 011.174.49c.326.325.489.717.489 1.174a1.6 1.6 0 01-.489 1.175 1.601 1.601 0 01-1.175.489z" fill="#B2B2B2"/></g></svg>