<svg width="20" height="20" viewBox="0 0 20 20" fill="none" xmlns="http://www.w3.org/2000/svg"><mask id="mask0_289_61432" style="mask-type:alpha" maskUnits="userSpaceOnUse" x="0" y="0" width="20" height="20"><path fill="#D9D9D9" d="M0 0h20v20H0z"/></mask><g mask="url(#mask0_289_61432)"><path d="M4.42 17.085c-.415 0-.77-.148-1.064-.442a1.452 1.452 0 01-.442-1.065V4.424c0-.415.147-.77.442-1.065a1.451 1.451 0 011.065-.441h11.153c.416 0 .77.147 1.065.441.295.295.442.65.442 1.065v5.271a5.31 5.31 0 00-1.25-.369V4.425a.244.244 0 00-.08-.176.245.245 0 00-.177-.08H4.421a.245.245 0 00-.177.08.245.245 0 00-.08.176v11.154c0 .064.027.123.08.176.054.054.112.08.177.08h4.881a4.345 4.345 0 00.36 1.25H4.421zm-.256-1.25V4.168v5.159-.063 6.57zm1.875-1.972h3.348c.036-.216.09-.428.162-.633.071-.206.15-.411.234-.616H6.039v1.25zm0-3.237h5.284c.359-.304.742-.56 1.149-.765a4.854 4.854 0 011.308-.438v-.047H6.04v1.25zm0-3.237h7.917v-1.25H6.039v1.25zm8.958 11.41c-1.04 0-1.925-.364-2.655-1.094-.73-.73-1.095-1.615-1.095-2.656 0-1.04.365-1.925 1.095-2.655.73-.73 1.615-1.095 2.655-1.095 1.041 0 1.926.365 2.656 1.095.73.73 1.094 1.615 1.094 2.655 0 1.041-.364 1.926-1.094 2.656-.73.73-1.615 1.094-2.656 1.094zm-.368-1.298h.737v-2.083h2.083v-.737h-2.083v-2.083h-.737v2.083h-2.083v.737h2.083v2.083z" fill="#333"/></g></svg>