<svg width="24" height="24" viewBox="0 0 24 24" fill="none" xmlns="http://www.w3.org/2000/svg"><mask id="mask0_26_21348" style="mask-type:alpha" maskUnits="userSpaceOnUse" x="0" y="0" width="24" height="24"><path fill="#D9D9D9" d="M0 0h24v24H0z"/></mask><g mask="url(#mask0_26_21348)"><path d="M20.371 12.75H8.577v-1.5h11.794l-1.819-1.82 1.054-1.084L23.259 12l-3.653 3.654-1.054-1.085 1.82-1.819zm-5.169-3.885V5.308a.3.3 0 00-.086-.221.3.3 0 00-.222-.087H5.308a.3.3 0 00-.221.087.3.3 0 00-.087.22v13.385a.3.3 0 00.087.221.3.3 0 00.22.087h9.587a.3.3 0 00.222-.087.3.3 0 00.086-.22v-3.558h1.5v3.557c0 .499-.177.925-.53 1.278-.353.353-.78.53-1.278.53H5.308c-.499 0-.925-.177-1.278-.53a1.742 1.742 0 01-.53-1.278V5.308c0-.499.177-.925.53-1.278.353-.353.78-.53 1.278-.53h9.586c.499 0 .925.177 1.278.53.353.353.53.78.53 1.278v3.557h-1.5z" fill="#333"/></g></svg>