<svg width="20" height="20" viewBox="0 0 20 20" fill="none" xmlns="http://www.w3.org/2000/svg"><mask id="mask0_245_32963" style="mask-type:alpha" maskUnits="userSpaceOnUse" x="0" y="0" width="20" height="20"><path fill="#333" d="M0 0h20v20H0z"/></mask><g mask="url(#mask0_245_32963)"><path d="M9.376 16.31v-5.95L4.168 7.346v5.804c0 .043.01.083.032.12a.26.26 0 00.096.096l5.08 2.944zm1.25 0l5.08-2.945a.276.276 0 00.097-.096.24.24 0 00.032-.12V7.345l-5.209 3.016v5.948zm-1.378 1.363l-5.577-3.21a1.483 1.483 0 01-.753-1.301v-6.32a1.476 1.476 0 01.753-1.302l5.577-3.21a1.484 1.484 0 011.506 0l5.577 3.21a1.483 1.483 0 01.754 1.301v6.32a1.476 1.476 0 01-.754 1.302l-5.577 3.21a1.484 1.484 0 01-1.506 0zm3.966-10.255l1.933-1.109-5.018-2.902a.24.24 0 00-.128-.04.24.24 0 00-.128.04L8.063 4.45l5.151 2.97zm-3.213 1.866l1.938-1.122-5.146-2.975L4.855 6.31l5.146 2.975z" fill="#333"/></g></svg>