<svg width="24" height="24" viewBox="0 0 24 24" fill="none" xmlns="http://www.w3.org/2000/svg"><mask id="mask0_172_40932" style="mask-type:alpha" maskUnits="userSpaceOnUse" x="0" y="0" width="24" height="24"><path fill="#D9D9D9" d="M0 0h24v24H0z"/></mask><g mask="url(#mask0_172_40932)"><path d="M6.023 17.292c.85-.63 1.776-1.129 2.778-1.494A9.265 9.265 0 0112 15.25c1.13 0 2.197.183 3.199.548 1.002.365 1.928.864 2.778 1.494a7.887 7.887 0 001.478-2.373A7.711 7.711 0 0020 12c0-2.217-.78-4.104-2.337-5.662C16.104 4.779 14.217 4 12 4s-4.104.78-5.662 2.338C4.779 7.896 4 9.783 4 12c0 1.047.182 2.02.545 2.92a7.888 7.888 0 001.478 2.372zM12 12.75c-.913 0-1.683-.313-2.31-.94s-.94-1.397-.94-2.31.313-1.683.94-2.31 1.397-.94 2.31-.94 1.683.313 2.31.94.94 1.397.94 2.31-.313 1.683-.94 2.31-1.397.94-2.31.94zm0 8.75a9.312 9.312 0 01-3.713-.744 9.54 9.54 0 01-3.016-2.027 9.538 9.538 0 01-2.027-3.016A9.31 9.31 0 012.5 12c0-1.32.248-2.557.744-3.713a9.538 9.538 0 012.027-3.016 9.538 9.538 0 013.016-2.027A9.31 9.31 0 0112 2.5a9.31 9.31 0 013.713.744 9.538 9.538 0 013.016 2.027 9.54 9.54 0 012.027 3.016A9.312 9.312 0 0121.5 12c0 1.32-.248 2.557-.744 3.713a9.54 9.54 0 01-2.027 3.016 9.54 9.54 0 01-3.016 2.027A9.312 9.312 0 0112 21.5zm0-1.5c.902 0 1.773-.145 2.61-.436a7.409 7.409 0 002.232-1.218 7.601 7.601 0 00-2.202-1.175A8.082 8.082 0 0012 16.75c-.941 0-1.822.139-2.644.416a7.25 7.25 0 00-2.198 1.18 7.41 7.41 0 002.231 1.218c.838.29 1.709.436 2.611.436zm0-8.75c.498 0 .914-.167 1.248-.502.335-.334.502-.75.502-1.248s-.167-.914-.502-1.248c-.334-.335-.75-.502-1.248-.502s-.914.167-1.248.502c-.335.334-.502.75-.502 1.248s.167.914.502 1.248c.334.335.75.502 1.248.502z" fill="#333"/></g></svg>