<svg width="24" height="24" viewBox="0 0 24 24" fill="none" xmlns="http://www.w3.org/2000/svg"><mask id="mask0_18_6036" style="mask-type:alpha" maskUnits="userSpaceOnUse" x="0" y="0" width="24" height="24"><path fill="#D9D9D9" d="M0 0h24v24H0z"/></mask><g mask="url(#mask0_18_6036)"><path d="M19.067 19.977l-5.956-5.956c-.5.38-1.048.673-1.644.881a5.562 5.562 0 01-1.847.313c-1.56 0-2.886-.546-3.978-1.638-1.092-1.092-1.638-2.417-1.638-3.976 0-1.559.546-2.884 1.638-3.977 1.091-1.093 2.417-1.64 3.976-1.64 1.558 0 2.884.546 3.977 1.639 1.093 1.092 1.64 2.418 1.64 3.977 0 .654-.108 1.28-.323 1.876a5.993 5.993 0 01-.872 1.616l5.956 5.956-.929.929zM9.62 13.915c1.205 0 2.226-.418 3.062-1.254.836-.836 1.254-1.856 1.254-3.061 0-1.206-.418-2.226-1.254-3.062-.836-.836-1.857-1.254-3.062-1.254-1.205 0-2.226.418-3.061 1.254-.836.836-1.254 1.856-1.254 3.062 0 1.205.418 2.225 1.254 3.061.835.836 1.856 1.254 3.061 1.254z" fill="#B2B2B2"/></g></svg>