<svg width="24" height="24" viewBox="0 0 24 24" fill="none" xmlns="http://www.w3.org/2000/svg"><mask id="mask0_172_40910" style="mask-type:alpha" maskUnits="userSpaceOnUse" x="0" y="0" width="24" height="24"><path fill="#D9D9D9" d="M0 0h24v24H0z"/></mask><g mask="url(#mask0_172_40910)"><path d="M7.875 6.746l2.704-3.548c.18-.24.392-.417.64-.529A1.86 1.86 0 0112 2.5c.274 0 .535.056.782.169.247.112.46.289.64.529l2.703 3.548 4.134 1.396c.395.127.703.351.924.672.222.321.332.675.332 1.063a1.9 1.9 0 01-.078.536 1.654 1.654 0 01-.258.512l-2.692 3.736.1 3.966a1.72 1.72 0 01-.521 1.331c-.364.361-.788.542-1.272.542-.014 0-.181-.022-.502-.066L12 19.204l-4.292 1.23a.82.82 0 01-.258.058 4.4 4.4 0 01-.244.008c-.489 0-.914-.18-1.275-.542a1.726 1.726 0 01-.518-1.331l.1-3.99-2.676-3.712a1.66 1.66 0 01-.259-.514 1.84 1.84 0 01.251-1.589 1.78 1.78 0 01.921-.69l4.125-1.386zm.927 1.293L4.231 9.562a.302.302 0 00-.197.197c-.036.1-.021.19.043.274l2.946 4.158-.11 4.467a.286.286 0 00.116.26.29.29 0 00.279.047L12 17.648l4.692 1.343a.29.29 0 00.28-.049.287.287 0 00.114-.26l-.109-4.491 2.946-4.108a.273.273 0 00.043-.274.302.302 0 00-.197-.197l-4.571-1.573-2.957-3.904A.277.277 0 0012 4.01a.277.277 0 00-.24.125L8.801 8.039z" fill="#333"/></g></svg>