<svg width="20" height="20" viewBox="0 0 20 20" fill="none" xmlns="http://www.w3.org/2000/svg"><mask id="mask0_78_21836" style="mask-type:alpha" maskUnits="userSpaceOnUse" x="0" y="0" width="20" height="20"><path fill="#D9D9D9" d="M0 0h20v20H0z"/></mask><g mask="url(#mask0_78_21836)"><path d="M4.756 16.585c-.375 0-.692-.132-.951-.396a1.3 1.3 0 01-.389-.944V4.758c0-.366.13-.68.389-.944a1.28 1.28 0 01.95-.396h10.488c.375 0 .692.132.951.396a1.3 1.3 0 01.389.944v10.487c0 .365-.13.68-.389.944a1.281 1.281 0 01-.951.396H4.756zm0-1.084h10.487a.244.244 0 00.176-.08.244.244 0 00.08-.176V4.758a.244.244 0 00-.08-.176.244.244 0 00-.176-.08H4.756a.245.245 0 00-.176.08.245.245 0 00-.08.176v10.487c0 .064.026.123.08.176.053.054.112.08.176.08zm1.368-1.708h7.814l-2.615-3.487-2.09 2.711-1.291-1.631-1.818 2.407zm.875-6a.762.762 0 00.56-.232.762.762 0 00.232-.56.762.762 0 00-.232-.56A.762.762 0 007 6.21a.762.762 0 00-.56.231.762.762 0 00-.231.56c0 .22.077.406.231.56a.762.762 0 00.56.232z" fill="gray"/></g></svg>