<svg width="20" height="20" viewBox="0 0 20 20" fill="none" xmlns="http://www.w3.org/2000/svg"><mask id="mask0_27_22430" style="mask-type:alpha" maskUnits="userSpaceOnUse" x="0" y="0" width="20" height="20"><path fill="#D9D9D9" d="M0 0h20v20H0z"/></mask><g mask="url(#mask0_27_22430)"><path d="M13.232 16.585V8.662c0-.882-.306-1.629-.919-2.242-.612-.612-1.36-.919-2.24-.919-.882 0-1.63.307-2.242.92-.613.612-.919 1.36-.919 2.24v2.954L8.3 10.227l.774.774-2.704 2.704L3.667 11l.774-.774 1.388 1.388V8.662c0-1.181.412-2.183 1.236-3.008.824-.824 1.827-1.236 3.007-1.236 1.18 0 2.183.412 3.008 1.236.824.825 1.236 1.827 1.236 3.008v7.923h-1.084z" fill="gray"/></g></svg>