<svg width="40" height="40" viewBox="0 0 40 40" fill="none" xmlns="http://www.w3.org/2000/svg"><g clip-path="url(#clip0_240_81136)"><path d="M26.97 27.303a1.467 1.467 0 012.074.035l5.249 5.428a1.467 1.467 0 01-2.109 2.038l-5.248-5.428a1.467 1.467 0 01.034-2.073z" fill="#33A3DE"/><path d="M5.713 5.35a1.467 1.467 0 012.073.034l5.25 5.428a1.467 1.467 0 01-2.11 2.04l-5.247-5.43a1.467 1.467 0 01.035-2.073z" fill="#CCE8F7"/><path d="M26.857 13.035a1.467 1.467 0 01.035-2.073l5.428-5.25a1.467 1.467 0 012.04 2.11l-5.43 5.248a1.467 1.467 0 01-2.074-.035z" fill="#80C5EB"/><path d="M5.193 33.992a1.467 1.467 0 01.035-2.073l5.428-5.25a1.467 1.467 0 012.039 2.11l-5.428 5.248a1.467 1.467 0 01-2.074-.035z" fill="#F7FCFE"/><path d="M22.564 10.336a1.466 1.466 0 01-1.007-1.813l2.076-7.26a1.466 1.466 0 112.82.807l-2.076 7.26a1.466 1.466 0 01-1.813 1.006z" fill="#99D1EF"/><path d="M14.228 39.485a1.466 1.466 0 01-1.007-1.814l2.076-7.26a1.466 1.466 0 112.82.807l-2.076 7.26a1.466 1.466 0 01-1.813 1.007z" fill="#008CD6"/><path d="M17.764 10.215a1.467 1.467 0 01-1.779-1.067l-1.831-7.325A1.467 1.467 0 1117 1.11l1.831 7.326a1.467 1.467 0 01-1.067 1.778z" fill="#B2DCF3"/><path d="M25.186 39.958a1.467 1.467 0 01-1.779-1.068l-1.832-7.325a1.467 1.467 0 012.846-.711l1.832 7.325a1.467 1.467 0 01-1.067 1.779z" fill="#1A98DA"/><path d="M10.215 22.276a1.467 1.467 0 01-1.067 1.778l-7.325 1.832a1.467 1.467 0 01-.712-2.846l7.326-1.832a1.467 1.467 0 011.778 1.068z" fill="#F2F9FD"/><path d="M39.871 14.846a1.467 1.467 0 01-1.067 1.779l-7.325 1.831a1.467 1.467 0 01-.711-2.846l7.325-1.831a1.467 1.467 0 011.778 1.067z" fill="#66BAE6"/><path d="M39.66 25.4a1.466 1.466 0 01-1.813 1.007l-7.26-2.077a1.466 1.466 0 11.807-2.82l7.26 2.076A1.466 1.466 0 0139.66 25.4z" fill="#4DAFE2"/><path d="M10.262 16.978a1.466 1.466 0 01-1.814 1.007l-7.26-2.077a1.466 1.466 0 11.808-2.82l7.26 2.077a1.466 1.466 0 011.006 1.813z" fill="#E5F3FB"/></g><defs><clipPath id="clip0_240_81136"><path fill="#fff" d="M0 0h39.918v40H0z"/></clipPath></defs></svg>