<svg width="208" height="24" viewBox="0 0 208 24" fill="none" xmlns="http://www.w3.org/2000/svg"><path d="M190.273 9.624h-9.163v1.032h3.408v2.138h-3.376v1.144h3.376v2.534h-3.408v1.03h3.408v2.136c0 .18-.049.318-.149.406-.161.145-.407.125-.407.125h-1.466l.398 1.144h2.006c.564 0 .999-.16 1.293-.483.439-.483.391-1.14.387-1.196v-2.131h1.982v.729l1.715-.608v-3.686h1.116v-1.144h-1.116v-3.17h-.004zm-1.715 6.848h-1.982v-2.534h1.982v2.534zm0-3.682h-1.982v-2.138h1.982v2.138zm19.051-8.184c-.29-.318-.725-.484-1.293-.484h-11.793l-2.026-.447V15.42h6.807v6.662l2.094-.684v-5.973h4.995l1.599.515V5.806c.004-.052.052-.717-.387-1.2m-8.297 9.67h-4.713v-3.89h4.713v3.89zm0-5.034h-4.713V5.27h4.713v3.972zm6.972 5.035h-4.874v-3.891h4.874v3.89zm0-5.035h-4.874V5.27h4.31s.258-.02.415.125c.097.089.149.226.149.407v3.44zm-28.44-.564h1.921V7.647h-1.921V6.47h2.38V5.327h-2.38v-1.2l-2.059-.568v1.768h-2.497V6.47h2.497v1.176h-2.042v1.03h2.042v1.217h-2.916v1.144h7.633V9.894h-2.658V8.678zm2.65 3.117h-5.824l-1.76-.241v9.872h1.832V17.62h4.036v2.054c0 .181-.048.318-.149.407-.161.145-.407.125-.407.125h-1.466l.395 1.143h1.663c.564 0 .999-.16 1.289-.483.439-.48.391-1.14.387-1.196v-7.88l.004.005zm-4.483 4.798h-1.269V12.83h1.269v3.762zm2.767 0h-1.164V12.83h1.164v3.762zm4-8.197V5.862c0-.18.048-.318.149-.406.161-.145.406-.125.406-.125h1.209V9.25l1.716-.95V5.33h1.579v3.92l1.715-.95V5.273l1.1-1.091h-7.919c-.564 0-.999.161-1.289.483-.439.48-.39 1.14-.386 1.196v3.48l1.716-.95.004.004zm-27.836 9.586a3.801 3.801 0 01-1.217-1.091l-.165 1.204h-1.639V3.555h1.994V8.54a3.477 3.477 0 011.151-.922 3.191 3.191 0 011.422-.322c.955 0 1.704.294 2.244.882.54.588.809 1.421.809 2.5v4.298c0 1.08-.269 1.914-.809 2.502-.54.588-1.289.882-2.244.882a3.164 3.164 0 01-1.546-.383v.004zm2.179-1.663c.298-.326.447-.814.447-1.466v-4.028c0-.653-.149-1.144-.447-1.474-.298-.33-.737-.5-1.317-.5-.359 0-.697.08-1.007.238a3.285 3.285 0 00-.882.677v6.106c.261.29.551.52.874.684.318.166.656.25 1.019.25.58 0 1.019-.16 1.317-.487h-.004zm4.382 5.691a2.073 2.073 0 01-.592-.197v-1.37c.137.069.302.121.487.157.185.033.371.053.552.053.403 0 .721-.085.954-.25.234-.165.423-.471.56-.914l.415-1.184-3.428-10.739h2.184l2.203 7.81 2.159-7.81h1.788l-3.512 11.778c-.181.664-.391 1.196-.633 1.59a2.299 2.299 0 01-.922.875c-.375.185-.846.282-1.414.282-.29 0-.556-.024-.801-.073v-.008zM21.122 16.555h-7.927v2.924h9.619v3.456H0V19.48h9.546v-2.924H1.667v-3.36h19.455v3.36zM3.988 5.777v2.296H.483V2.635H9.57V.75h3.625v1.885h9.16v5.268h-2.152l1.185.194c-.17 1.377-.315 2.054-.605 2.634-.338.677-.918 1.184-1.957 1.184h-4.858c-1.135 0-1.885-.46-1.885-1.667V5.777h-1.885c-.41 2.006-1.377 3.963-3.045 5.196-1.474 1.111-3.238 1.619-5.002 1.981L.918 9.716c2.49-.41 5.414-.99 5.945-3.94H3.987zm11.43 2.73c0 .411.049.532.387.532h1.45c.532 0 .773-.193.822-1.522l.7.145V5.777h-3.359v2.73zm16.97-3.527v2.706H24.17V4.979h8.217zm8.579 1.063h1.546v2.634h-1.546v1.45h1.619v2.658h-6.09v-2.658h1.74v-1.45h-1.668V6.043h1.668V4.64h-2.32v7.806c0 2.175-.073 4.374-.363 6.55-.217 1.763-.7 3.237-1.498 4.832l-2.127-1.957v1.377h-7.153V15.83h7.153v4.616c.967-2.344 1.015-5.68 1.015-8.217V1.523H46.26V21.34c0 1.33-.556 2.344-2.03 2.344h-3.262l-.435-2.368h-3.915V13.85h5.679v6.428h.12c.75 0 .75-.145.75-.87V4.64h-2.2v1.402zm-9.039-4.52v2.514h-7.153V1.523h7.153zm0 7.081v2.635h-7.153V8.604h7.153zm0 3.577v2.683h-7.153V12.18h7.153zm-4.108 6.235v2.175h1.595v-2.175H27.82zm10.895-1.837v2.03h1.547v-2.03h-1.547zM53.163 2.973V.895h3.48v2.078h4.18V6.21h-1.038a25.72 25.72 0 01-.725 3.335h2.078v3.215H48.45V9.546h2.248c-.024-.966-.242-2.416-.508-3.335h-1.184V2.973h4.157zm7.37 20.324H49.322v-9.425h11.213v9.425zm-7.83-6.356v3.239h4.472v-3.24h-4.471zm.702-10.73c.193 1.112.386 2.224.483 3.335h1.933c.266-.87.532-2.416.629-3.335h-3.045zm8.313 17.449V1.354h9.425v3.262c-.483 1.813-1.28 3.891-2.03 5.583 1.62 1.885 2.49 4.253 2.49 6.766 0 2.514-1.016 4.423-3.892 4.423h-1.619l-.628-3.48h1.208c1.088 0 1.184-.822 1.184-1.716 0-2.296-.845-3.818-2.271-5.534.676-1.523 1.619-4.35 1.933-5.97h-2.296V23.66h-3.504zM73.157 8.12V4.739h3.625V.75h3.504v3.988h2.707V8.12h-2.707v1.353c1.015 1.595 2.151 2.804 3.674 3.94l-2.224 2.9c-.58-.701-.99-1.257-1.45-2.055v9.401h-3.504v-9.304c-.773 1.933-1.716 3.383-2.924 5.05l-1.208-4.422c1.933-1.885 3.19-4.326 4.06-6.863h-3.553zm10.61.05V4.737h5.824V.75h3.673v3.988h2.682v3.431h-2.682v13.075c0 .676-.145 1.28-.604 1.788-.363.387-1.015.628-1.523.628H85.99l-.556-3.552h3.238c.677 0 .919-.073.919-.798v-5.582c-1.765 2.827-3.456 4.736-5.921 6.935l-2.417-2.948c3.166-2.15 6.428-6.21 8.24-9.546h-5.727zm58.769-4.729v18.77h-19.422V3.441h19.422zm-15.358 3.762V18.47h11.29V7.203h-11.29zM117.6 0a3.416 3.416 0 00-3.412 3.412 3.416 3.416 0 003.412 3.411 3.416 3.416 0 003.412-3.411A3.416 3.416 0 00117.6 0zm0 5.12a1.693 1.693 0 01-1.708-1.708c0-.955.753-1.708 1.708-1.708s1.708.753 1.708 1.708a1.71 1.71 0 01-1.708 1.707z" fill="#008CD6"/><path d="M113.423 3.465H98.081v3.963h14.428c-.476 2.936-1.281 5.796-3.464 7.931-2.509 2.433-5.998 3.613-9.385 4.241l1.809 3.766c4.039-.777 8.204-2.71 11.016-5.772 2.432-2.686 3.488-5.695 4.164-9.183v-.922a4.188 4.188 0 01-3.226-4.02v-.004z" fill="#008CD6"/></svg>