<svg width="51" height="22" viewBox="0 0 51 22" fill="none" xmlns="http://www.w3.org/2000/svg"><rect x=".5" y=".5" width="50" height="21" rx="1.5" fill="#FFF9E5" stroke="#FFC600"/><path d="M35.503 7.856h8.004v1.08h-8.004v-1.08zm-.516 5.976h8.94v1.152h-8.94v-1.152zm3.648-6.648h1.368v9.108h-1.368V7.184zm-1.536 4.596v.588h4.548v-.588h-4.548zm0-1.416v.588h4.548v-.588h-4.548zm-1.26-.876h7.128v3.768h-7.128V9.488zM37.987 5h1.5v1.704h-1.5V5zm-3.648.936h9.492v1.26h-9.492v-1.26zm-.672 0h1.368v3.912c0 .48-.016 1.004-.048 1.572a14.37 14.37 0 01-.18 1.716 11.249 11.249 0 01-.384 1.668 6.123 6.123 0 01-.672 1.464 2.71 2.71 0 00-.336-.3c-.136-.104-.28-.208-.432-.312a1.82 1.82 0 00-.384-.204c.248-.4.444-.836.588-1.308.144-.472.248-.956.312-1.452.072-.504.116-.996.132-1.476.024-.488.036-.944.036-1.368V5.936zm-12.648.732h10.704v1.38H21.019v-1.38zm3.912 3.888h6.3v1.332h-6.3v-1.332zm-.456 4.08h7.212v1.332h-7.212v-1.332zm2.904-6.072h1.452v6.78h-1.452v-6.78zM24.81 5l1.5.36c-.296.96-.668 1.908-1.116 2.844a14.142 14.142 0 01-1.62 2.616 9.894 9.894 0 01-2.232 2.088 3.536 3.536 0 00-.204-.456c-.08-.168-.164-.336-.252-.504a3.624 3.624 0 00-.252-.42 7.184 7.184 0 001.476-1.272 9.924 9.924 0 001.188-1.62c.344-.584.64-1.184.888-1.8.256-.616.464-1.228.624-1.836zm-2.4 5.028h1.452v6.228H22.41v-6.228zm-5.13 5.029H6l5.64-9.768 5.64 9.768zM6.912 14.53h9.456L11.64 6.345 6.912 14.53z" fill="#F70"/></svg>