<?xml version="1.0" encoding="UTF-8"?>
<svg id="_レイヤー_1" data-name="レイヤー_1" xmlns="http://www.w3.org/2000/svg" version="1.1" viewBox="0 0 180 180">
  <!-- Generator: Adobe Illustrator 30.0.0, SVG Export Plug-In . SVG Version: 2.1.1 Build 123)  -->
  <defs>
    <style>
      .st0 {
        fill: #fff;
      }

      .st1 {
        fill: #008bd5;
      }
    </style>
  </defs>
  <rect class="st1" width="180" height="180"/>
  <path class="st0" d="M142.3,30.7h-36.5c-9.7,16.8-15.4,36.2-15.8,56.9h-12.2c.4-20.7,6.1-40.1,15.8-56.9h-29.7c-10.1,17.5-15.9,37.7-15.9,59.3s0,1.7,0,2.5h12.2c0,.6,0,1.3,0,1.9-1,21.1-9.4,40.2-22.6,55h36.5c10.1-17.4,15.8-37.6,15.9-59.1h0c0,21.5,5.8,41.7,15.9,59.1h36.5c-14.1-15.7-22.7-36.5-22.7-59.3s8.6-43.6,22.7-59.3"/>
</svg>